#!OML:ASF F:\VICON\USERDATA\INSTALL\rory3\rory3.ASF
:FULLY-SPECIFIED
:DEGREES
45
root 0.05458379845927458 18.132125313687926 9.376254150506181 -2.900789732681427 -2.541597017810767 -5.685958153671906
lfemur -24.328164531740818 3.7851888931394577 -12.738058339600208
ltibia 55.0396547938068
lfoot -2.723498116900821 -1.4010018210105453
ltoes -3.067765283338195
rfemur -5.814225310532207 5.681028344974136 32.35319481482514
rtibia 29.143401627359985
rfoot -8.983512146713299 -3.205777449631497
rtoes 5.77226053689062
lowerback 9.622914035954768 1.5829439765225306 5.685949984286011
upperback 0.4179963760126625 1.9849023709220135 2.244131699556966
thorax -4.874569987907587 1.2449365813549411 -1.0788856214525917
lowerneck -16.55605859759311 -2.6343530840350518 -2.372834900035704
upperneck 21.038034185758782 -3.6370038731022594 1.052384440533765
head 9.448690851940805 -1.8472313236582067 0.08042011826607379
lclavicle -1.952115986265321e-15 9.078050094348204e-16
lhumerus -32.81257455794681 -0.6267035015792624 85.21975800720621
lradius 24.691862269491754
lwrist 5.35409476382558
lhand -26.997054340070413 23.77911895751842
lfingers 7.12502
lthumb -0.27970947631818843 54.323087861976184
rclavicle -1.953474433364483e-15 9.06553893560287e-16
rhumerus -25.032282341553362 -11.124784990444452 -81.73936569572541
rradius 24.646284045982288
rwrist 4.647278466142026
rhand -17.801826974487643 22.633395662671745
rfingers 7.12502
rthumb 8.489053032470345 -6.9173763186514
46
root 0.06708591218204923 18.08496802634961 9.883167862780773 -2.4626641794757593 -3.164261663369976 -6.283529026719311
lfemur -26.77080450114001 3.6046511797927123 -12.203949057933414
ltibia 44.52294857013382
lfoot -2.980513348362265 -0.21456914101478897
ltoes -3.4980572348088192
rfemur -3.964042633611477 5.65496836648086 33.27850305608993
rtibia 28.727039374698197
rfoot -9.309991134312144 -3.5810781376172955
rtoes 4.5947851855548105
lowerback 9.632323682163765 1.8896888526687365 6.300153191832053
upperback 0.35818298052807535 2.4954118018913274 2.1918190464851763
thorax -4.890541405299582 1.4086960786145368 -1.4770951195468003
lowerneck -16.511179718749244 -2.615840858833399 -2.313458224069421
upperneck 20.913352974489182 -3.6470358108373104 1.1379874570172792
head 9.44493105306425 -1.8477941662653155 0.09201971419892396
lclavicle -1.9521159860987375e-15 9.078050095882418e-16
lhumerus -33.78107466559378 0.6169436768271308 84.95703899037501
lradius 24.123215460279727
lwrist 5.084042222444912
lhand -27.009183315236942 23.734748941224854
lfingers 7.12502
lthumb -0.34412260803508143 54.17036314759055
rclavicle -1.9534744336497204e-15 9.065538932975865e-16
rhumerus -24.227693629960093 -10.069485494400146 -81.85236688689405
rradius 25.130759609854433
rwrist 3.756089014391362
rhand -17.810710673351245 22.650680058457873
rfingers 7.12502
rthumb 8.480410302251675 -6.935592796082097
47
root 0.09485241990879623 18.04161326686601 10.885609312752777 -1.8273312090172582 -3.6496629292993683 -6.7410758406840525
lfemur -27.72670887305474 2.3187647969754503 -11.354211342827476
ltibia 31.758612613594888
lfoot -2.788819942705419 0.7423128312168088
ltoes -3.5653711491331297
rfemur -1.6182613480007237 5.772009507822617 33.93764155163164
rtibia 28.035401186687153
rfoot -9.242073263340675 -4.02252951870821
rtoes 3.598588343229796
lowerback 9.503883974334656 2.1476834474931814 6.850000984222367
upperback 0.28488260232734075 3.061573489867466 2.1844445117160687
thorax -4.871848362349393 1.575866923590162 -1.7614502098855818
lowerneck -16.569530411795302 -2.6271649430929696 -2.3261608058095824
upperneck 20.782757327684525 -3.645548654849002 1.1535915794321918
head 9.456613156313859 -1.8329954448121897 0.11146460406249531
lclavicle -1.9521159862566375e-15 9.078050094428176e-16
lhumerus -34.788355560288444 1.9970938102235583 84.50016798484727
lradius 23.46174183782327
lwrist 4.70504472731813
lhand -27.00333398299774 23.7178026803935
lfingers 7.12502
lthumb -0.3034630076019786 54.23402620321535
rclavicle -1.9534744335060554e-15 9.065538934299002e-16
rhumerus -23.465416734536973 -9.466321439405137 -81.90934409527472
rradius 25.502230580620537
rwrist 2.961631952458931
rhand -17.83884929261137 22.6278009354309
rfingers 7.12502
rthumb 8.514943415911613 -6.8757848917022
48
root 0.12999829935704293 17.9922716583032 11.915976401956659 -1.13246777780615 -4.127872930889556 -7.089509298302618
lfemur -27.67239048912269 -0.24353383597638167 -9.866164081414857
ltibia 20.159389835381155
lfoot -2.607493987182627 1.130441083149108
ltoes -4.205497753096332
rfemur 0.5107467478223935 5.896224575057242 34.367444768721164
rtibia 26.90128204002656
rfoot -8.905864669040612 -4.374006684362927
rtoes 2.6242152477079506
lowerback 9.304368413407413 2.390394873816137 7.332804789001864
upperback 0.2309010792972143 3.5393832089520223 2.2256146614922008
thorax -4.840504986502475 1.7058357036551006 -1.9724994783448069
lowerneck -16.6065140511323 -2.6376517887713518 -2.329452072526236
upperneck 20.735764827623214 -3.5940364228047876 1.1982225165849745
head 9.454086349359887 -1.8155919011947255 0.11572923901792988
lclavicle -1.9521159867128744e-15 9.078050090226281e-16
lhumerus -35.552584408387276 3.505662329361286 83.9544812345678
lradius 22.656683746164557
lwrist 4.328556215032169
lhand -27.009398444681846 23.685520405462533
lfingers 7.12502
lthumb -0.3491178631318315 54.09216464053982
rclavicle -1.9534744334942856e-15 9.0655389344074e-16
rhumerus -22.91287998566336 -9.244025212576748 -81.894399427345
rradius 25.753070608158335
rwrist 2.285935242003756
rhand -17.85562786499781 22.7003571448217
rfingers 7.12502
rthumb 8.551960023686894 -6.73628190894973
49
root 0.17284634809443872 17.930430698710122 12.976068578398248 -0.5245300308007643 -4.625184969574175 -7.300541695566141
lfemur -26.55063842095616 -4.298117309398105 -7.736431670640039
ltibia 13.321478575077354
lfoot -2.990009496519768 1.0523352152714354
ltoes -4.437497301369032
rfemur 2.6802843406753745 5.9057035499727695 34.5063805116787
rtibia 25.671887250592146
rfoot -8.562288063756673 -4.523392410212018
rtoes 2.032843262248221
lowerback 9.079062130007225 2.53250129977088 7.475146949150174
upperback 0.1649321321122374 3.823602522223329 2.1994885281966137
thorax -4.808026411080716 1.8135229501919532 -2.0829677216318463
lowerneck -16.679753249198864 -2.6488448625959267 -2.3269975106748206
upperneck 20.713867996244026 -3.5344194412295744 1.1754572576604163
head 9.45972671108258 -1.793770243773714 0.11881643400506849
lclavicle -1.952115985935737e-15 9.078050097383636e-16
lhumerus -36.20814213973323 4.87049829603896 83.33151352901112
lradius 21.8113049575535
lwrist 3.757186818227427
lhand -27.01647925439754 23.648135185393155
lfingers 7.12502
lthumb -0.33177755682294324 54.09919961271514
rclavicle -1.953474433559047e-15 9.065538933810955e-16
rhumerus -22.65322851273736 -9.529908877278528 -81.92296214339848
rradius 25.993608869092245
rwrist 2.1216580507558893
rhand -17.907951236238635 22.708988839696353
rfingers 7.12502
rthumb 8.530724280118184 -6.713751847541226
